<svg width="1200" height="1400" viewBox="0 0 1200 1400" fill="none" xmlns="http://www.w3.org/2000/svg">
  <rect width="1200" height="1400" fill="#E8E3D9"/>
  <ellipse cx="620" cy="1020" rx="270" ry="190" fill="#D6CCBC" fill-opacity="0.6"/>
  <path d="M324 778C360 692 446 626 548 630C590 632 626 652 660 680C706 718 754 756 816 778C850 790 872 822 876 858C884 924 860 1008 814 1060C756 1126 668 1152 594 1144C482 1132 394 1044 348 956C320 902 298 838 324 778Z" fill="#D8C5AC"/>
  <path d="M536 468C584 424 650 410 706 432C772 458 822 526 858 602C896 682 920 766 942 852C950 884 940 914 912 928C888 940 854 932 836 908C792 850 762 782 720 724C674 660 618 620 542 624C494 626 450 602 436 556C422 512 498 500 536 468Z" fill="#C5B096"/>
  <path d="M240 694C288 650 358 638 412 666C468 694 504 748 526 806C536 834 530 866 506 888C478 914 438 918 408 896C382 878 360 852 336 824C292 772 244 736 240 694Z" fill="#DCC8AF"/>
  <path d="M446 918C532 828 694 796 824 818" stroke="#F7F0E4" stroke-width="16" stroke-linecap="round" opacity="0.58"/>
  <circle cx="670" cy="320" r="136" fill="#F2EEE6"/>
  <circle cx="670" cy="320" r="96" fill="#E0D8CB"/>
</svg>
