<svg width="1200" height="1400" viewBox="0 0 1200 1400" fill="none" xmlns="http://www.w3.org/2000/svg">
  <rect width="1200" height="1400" fill="#EFEBE4"/>
  <ellipse cx="600" cy="1120" rx="270" ry="62" fill="#D8D1C3" fill-opacity="0.6"/>
  <path d="M312 374C330 700 410 980 600 1044C790 980 870 700 888 374" fill="url(#surface)"/>
  <ellipse cx="600" cy="366" rx="298" ry="84" fill="#FDFBF7"/>
  <ellipse cx="600" cy="366" rx="222" ry="52" fill="#E3DDD1"/>
  <path d="M384 448C410 716 474 928 600 980C726 928 790 716 816 448" stroke="#D5CEBE" stroke-width="12" stroke-linecap="round"/>
  <path d="M472 530C492 644 542 834 600 866C658 834 708 644 728 530" stroke="#FBF8F1" stroke-width="10" stroke-linecap="round"/>
  <defs>
    <linearGradient id="surface" x1="600" y1="290" x2="600" y2="1044" gradientUnits="userSpaceOnUse">
      <stop stop-color="#FFFDF9"/>
      <stop offset="0.52" stop-color="#ECE6D8"/>
      <stop offset="1" stop-color="#D4CCBE"/>
    </linearGradient>
  </defs>
</svg>
