<svg width="1200" height="1500" viewBox="0 0 1200 1500" fill="none" xmlns="http://www.w3.org/2000/svg">
  <rect width="1200" height="1500" fill="#ECE9E2"/>
  <ellipse cx="610" cy="1160" rx="286" ry="78" fill="#D9D3C7" fill-opacity="0.56"/>
  <ellipse cx="604" cy="760" rx="350" ry="410" fill="url(#body)"/>
  <ellipse cx="604" cy="690" rx="320" ry="102" fill="#FCFBF7"/>
  <ellipse cx="604" cy="690" rx="258" ry="70" fill="#E3DED2"/>
  <path d="M340 700C358 973 440 1150 604 1150C768 1150 850 973 868 700" stroke="#F7F4EC" stroke-width="22"/>
  <path d="M410 758C454 1000 520 1098 604 1098C688 1098 754 1000 798 758" stroke="#E8E1D3" stroke-width="16" stroke-linecap="round"/>
  <ellipse cx="720" cy="560" rx="92" ry="160" fill="url(#glow)" fill-opacity="0.75"/>
  <path d="M316 1014C400 952 804 944 894 1014" stroke="#CEC7B8" stroke-width="10" stroke-linecap="round" opacity="0.48"/>
  <defs>
    <radialGradient id="body" cx="0" cy="0" r="1" gradientUnits="userSpaceOnUse" gradientTransform="translate(556 640) rotate(73.6008) scale(594.194 470.367)">
      <stop stop-color="#FFFDF8"/>
      <stop offset="0.38" stop-color="#F4F0E5"/>
      <stop offset="1" stop-color="#D9D2C4"/>
    </radialGradient>
    <radialGradient id="glow" cx="0" cy="0" r="1" gradientUnits="userSpaceOnUse" gradientTransform="translate(720 560) rotate(90) scale(160 92)">
      <stop stop-color="#FFF8E6"/>
      <stop offset="1" stop-color="#FFF8E6" stop-opacity="0"/>
    </radialGradient>
  </defs>
</svg>
