<svg width="900" height="1100" viewBox="0 0 900 1100" fill="none" xmlns="http://www.w3.org/2000/svg">
  <rect width="900" height="1100" fill="#E6E1D7"/>
  <path d="M218 324C326 288 572 288 680 324C716 334 732 378 728 412C698 662 632 870 450 930C268 870 202 662 172 412C168 378 184 334 218 324Z" fill="url(#body)"/>
  <path d="M290 470C326 626 376 774 450 824C524 774 574 626 610 470" stroke="#F8F4EA" stroke-width="14" stroke-linecap="round"/>
  <path d="M258 342C350 320 550 320 642 342" stroke="#FFFDF7" stroke-width="10" opacity="0.72"/>
  <circle cx="344" cy="456" r="94" fill="url(#spot)"/>
  <defs>
    <linearGradient id="body" x1="450" y1="296" x2="450" y2="930" gradientUnits="userSpaceOnUse">
      <stop stop-color="#FDFBF7"/>
      <stop offset="0.58" stop-color="#E8E0D0"/>
      <stop offset="1" stop-color="#D3CAB8"/>
    </linearGradient>
    <radialGradient id="spot" cx="0" cy="0" r="1" gradientUnits="userSpaceOnUse" gradientTransform="translate(344 456) rotate(90) scale(94)">
      <stop stop-color="#FFF5D8"/>
      <stop offset="1" stop-color="#FFF5D8" stop-opacity="0"/>
    </radialGradient>
  </defs>
</svg>
