<svg width="900" height="1100" viewBox="0 0 900 1100" fill="none" xmlns="http://www.w3.org/2000/svg">
  <rect width="900" height="1100" fill="#E8E1D8"/>
  <path d="M214 290C296 252 604 252 686 290C716 304 730 336 726 372C702 630 624 840 450 900C276 840 198 630 174 372C170 336 184 304 214 290Z" fill="url(#v2)"/>
  <path d="M286 482C326 470 368 480 404 514C436 544 476 550 522 532C554 520 584 520 612 530" stroke="#A99780" stroke-width="10" stroke-linecap="round" opacity="0.68"/>
  <defs>
    <linearGradient id="v2" x1="450" y1="252" x2="450" y2="900" gradientUnits="userSpaceOnUse">
      <stop stop-color="#FEFCF8"/>
      <stop offset="0.62" stop-color="#E3D9C8"/>
      <stop offset="1" stop-color="#CDC1AE"/>
    </linearGradient>
  </defs>
</svg>
